<?xml version="1.0" encoding="UTF-8"?>
<svg id="Capa_1" data-name="Capa 1" xmlns="http://www.w3.org/2000/svg" viewBox="0 0 617.61 602.52">
  <defs>
    <style>
      .cls-1 {
        fill: #4cc2f1;
      }

      .cls-1, .cls-2, .cls-3 {
        stroke-width: 0px;
      }

      .cls-4 {
        stroke-width: 30px;
      }

      .cls-4, .cls-5 {
        fill: none;
        stroke: #fff;
        stroke-miterlimit: 10;
      }

      .cls-2 {
        fill: #65b448;
      }

      .cls-3 {
        fill: #028c3e;
      }

      .cls-5 {
        stroke-width: 50px;
      }
    </style>
  </defs>
  <path class="cls-5" d="m134.57,25h348.48c60.47,0,109.57,49.09,109.57,109.57v322.43c0,66.52-54,120.52-120.52,120.52H134.57c-60.47,0-109.57-49.09-109.57-109.57V134.57c0-60.47,49.09-109.57,109.57-109.57Z"/>
  <circle class="cls-4" cx="308.4" cy="300.49" r="176.61"/>
  <g>
    <polygon class="cls-3" points="401.87 199.07 408.78 214.04 456.55 262.09 471.17 263.52 471.17 254.53 412.51 199.07 401.87 199.07"/>
    <g>
      <path class="cls-1" d="m412.33,202.57l54.54,51.59-130.84,135.16c-16.86,17.42-44.81,17.37-61.61-.11l-97.37-101.31c-14.72-15.31-14.1-39.69,1.37-54.24h0c11.83-11.12,30.37-10.75,41.75.83l80.53,81.98,111.63-113.91Z"/>
      <path class="cls-2" d="m402.63,199.4c-15.1.07,22.11-49.38,76.65-85.5,61.64-40.82,100.02-60.29,106.13-56.01,8.23,5.75-102.7,237.55-114.24,205.63-2.67-7.39-60.85-64.16-68.54-64.12Z"/>
    </g>
  </g>
</svg>